<mxfile host="ra82.es" agent="Mozilla/5.0 (Windows NT 10.0; Win64; x64) AppleWebKit/537.36 (KHTML, like Gecko) Chrome/132.0.0.0 Safari/537.36 OPR/117.0.0.0" version="24.7.5">
  <diagram id="R2lEEEUBdFMjLlhIrx00" name="Page-1">
    <mxGraphModel dx="1380" dy="745" grid="1" gridSize="10" guides="1" tooltips="1" connect="1" arrows="1" fold="1" page="1" pageScale="1" pageWidth="850" pageHeight="1100" math="0" shadow="0" extFonts="Permanent Marker^https://fonts.googleapis.com/css?family=Permanent+Marker">
      <root>
        <mxCell id="0" />
        <mxCell id="1" parent="0" />
        <mxCell id="YTzj1IbfX7oPGbKyCTcl-11" style="edgeStyle=orthogonalEdgeStyle;rounded=0;orthogonalLoop=1;jettySize=auto;html=1;exitX=0.5;exitY=1;exitDx=0;exitDy=0;sketch=1;curveFitting=1;jiggle=2;" edge="1" parent="1" source="YTzj1IbfX7oPGbKyCTcl-1" target="YTzj1IbfX7oPGbKyCTcl-2">
          <mxGeometry relative="1" as="geometry" />
        </mxCell>
        <mxCell id="YTzj1IbfX7oPGbKyCTcl-41" style="edgeStyle=orthogonalEdgeStyle;rounded=0;orthogonalLoop=1;jettySize=auto;html=1;exitX=1;exitY=0.5;exitDx=0;exitDy=0;entryX=0;entryY=0.5;entryDx=0;entryDy=0;dashed=1;sketch=1;curveFitting=1;jiggle=2;" edge="1" parent="1" source="YTzj1IbfX7oPGbKyCTcl-1" target="YTzj1IbfX7oPGbKyCTcl-25">
          <mxGeometry relative="1" as="geometry" />
        </mxCell>
        <mxCell id="YTzj1IbfX7oPGbKyCTcl-1" value="&lt;font face=&quot;Comic Sans MS&quot;&gt;FORMATEO CAMPOS&lt;/font&gt;" style="rounded=1;whiteSpace=wrap;html=1;sketch=1;curveFitting=1;jiggle=2;fillColor=#d5e8d4;strokeColor=#82b366;" vertex="1" parent="1">
          <mxGeometry x="310" y="40" width="160" height="60" as="geometry" />
        </mxCell>
        <mxCell id="YTzj1IbfX7oPGbKyCTcl-12" style="edgeStyle=orthogonalEdgeStyle;rounded=0;orthogonalLoop=1;jettySize=auto;html=1;exitX=0.5;exitY=1;exitDx=0;exitDy=0;entryX=0.5;entryY=0;entryDx=0;entryDy=0;sketch=1;curveFitting=1;jiggle=2;" edge="1" parent="1" source="YTzj1IbfX7oPGbKyCTcl-2" target="YTzj1IbfX7oPGbKyCTcl-3">
          <mxGeometry relative="1" as="geometry" />
        </mxCell>
        <mxCell id="YTzj1IbfX7oPGbKyCTcl-40" style="edgeStyle=orthogonalEdgeStyle;rounded=0;orthogonalLoop=1;jettySize=auto;html=1;exitX=0;exitY=0.5;exitDx=0;exitDy=0;entryX=1;entryY=0.5;entryDx=0;entryDy=0;sketch=1;curveFitting=1;jiggle=2;dashed=1;" edge="1" parent="1" source="YTzj1IbfX7oPGbKyCTcl-2" target="YTzj1IbfX7oPGbKyCTcl-26">
          <mxGeometry relative="1" as="geometry" />
        </mxCell>
        <mxCell id="YTzj1IbfX7oPGbKyCTcl-2" value="&lt;font face=&quot;Comic Sans MS&quot;&gt;DATATABLES&lt;/font&gt;&lt;div&gt;&lt;font face=&quot;Comic Sans MS&quot;&gt;(dentro de una variable)&lt;/font&gt;&lt;/div&gt;" style="rounded=1;whiteSpace=wrap;html=1;sketch=1;curveFitting=1;jiggle=2;fillColor=#d5e8d4;strokeColor=#82b366;" vertex="1" parent="1">
          <mxGeometry x="310" y="120" width="160" height="60" as="geometry" />
        </mxCell>
        <mxCell id="YTzj1IbfX7oPGbKyCTcl-13" style="edgeStyle=orthogonalEdgeStyle;rounded=0;orthogonalLoop=1;jettySize=auto;html=1;exitX=0.5;exitY=1;exitDx=0;exitDy=0;entryX=0.5;entryY=0;entryDx=0;entryDy=0;sketch=1;curveFitting=1;jiggle=2;" edge="1" parent="1" source="YTzj1IbfX7oPGbKyCTcl-3" target="YTzj1IbfX7oPGbKyCTcl-4">
          <mxGeometry relative="1" as="geometry" />
        </mxCell>
        <mxCell id="YTzj1IbfX7oPGbKyCTcl-3" value="&lt;font face=&quot;Comic Sans MS&quot;&gt;DEFINICIONES&lt;/font&gt;" style="rounded=1;whiteSpace=wrap;html=1;sketch=1;curveFitting=1;jiggle=2;fillColor=#d5e8d4;strokeColor=#82b366;" vertex="1" parent="1">
          <mxGeometry x="310" y="200" width="160" height="60" as="geometry" />
        </mxCell>
        <mxCell id="YTzj1IbfX7oPGbKyCTcl-14" style="edgeStyle=orthogonalEdgeStyle;rounded=0;orthogonalLoop=1;jettySize=auto;html=1;exitX=0.5;exitY=1;exitDx=0;exitDy=0;entryX=0.5;entryY=0;entryDx=0;entryDy=0;sketch=1;curveFitting=1;jiggle=2;" edge="1" parent="1" source="YTzj1IbfX7oPGbKyCTcl-4" target="YTzj1IbfX7oPGbKyCTcl-5">
          <mxGeometry relative="1" as="geometry" />
        </mxCell>
        <mxCell id="YTzj1IbfX7oPGbKyCTcl-39" value="" style="edgeStyle=orthogonalEdgeStyle;rounded=0;orthogonalLoop=1;jettySize=auto;html=1;sketch=1;curveFitting=1;jiggle=2;dashed=1;" edge="1" parent="1" source="YTzj1IbfX7oPGbKyCTcl-4" target="YTzj1IbfX7oPGbKyCTcl-28">
          <mxGeometry relative="1" as="geometry" />
        </mxCell>
        <mxCell id="YTzj1IbfX7oPGbKyCTcl-4" value="&lt;font face=&quot;Comic Sans MS&quot;&gt;FUNCIONES DE APOYO&lt;/font&gt;" style="rounded=1;whiteSpace=wrap;html=1;sketch=1;curveFitting=1;jiggle=2;fillColor=#d5e8d4;strokeColor=#82b366;" vertex="1" parent="1">
          <mxGeometry x="310" y="280" width="160" height="60" as="geometry" />
        </mxCell>
        <mxCell id="YTzj1IbfX7oPGbKyCTcl-15" style="edgeStyle=orthogonalEdgeStyle;rounded=0;orthogonalLoop=1;jettySize=auto;html=1;exitX=0.5;exitY=1;exitDx=0;exitDy=0;entryX=0.5;entryY=0;entryDx=0;entryDy=0;sketch=1;curveFitting=1;jiggle=2;" edge="1" parent="1" source="YTzj1IbfX7oPGbKyCTcl-5" target="YTzj1IbfX7oPGbKyCTcl-6">
          <mxGeometry relative="1" as="geometry" />
        </mxCell>
        <mxCell id="YTzj1IbfX7oPGbKyCTcl-42" style="edgeStyle=orthogonalEdgeStyle;rounded=0;orthogonalLoop=1;jettySize=auto;html=1;exitX=1;exitY=0.5;exitDx=0;exitDy=0;entryX=0;entryY=0.5;entryDx=0;entryDy=0;dashed=1;sketch=1;curveFitting=1;jiggle=2;" edge="1" parent="1" source="YTzj1IbfX7oPGbKyCTcl-5" target="YTzj1IbfX7oPGbKyCTcl-29">
          <mxGeometry relative="1" as="geometry" />
        </mxCell>
        <mxCell id="YTzj1IbfX7oPGbKyCTcl-5" value="&lt;font face=&quot;Comic Sans MS&quot;&gt;VER DETALLE&lt;/font&gt;" style="rounded=1;whiteSpace=wrap;html=1;sketch=1;curveFitting=1;jiggle=2;fillColor=#d5e8d4;strokeColor=#82b366;" vertex="1" parent="1">
          <mxGeometry x="310" y="360" width="160" height="60" as="geometry" />
        </mxCell>
        <mxCell id="YTzj1IbfX7oPGbKyCTcl-16" style="edgeStyle=orthogonalEdgeStyle;rounded=0;orthogonalLoop=1;jettySize=auto;html=1;exitX=0.5;exitY=1;exitDx=0;exitDy=0;entryX=0.5;entryY=0;entryDx=0;entryDy=0;sketch=1;curveFitting=1;jiggle=2;" edge="1" parent="1" source="YTzj1IbfX7oPGbKyCTcl-6" target="YTzj1IbfX7oPGbKyCTcl-7">
          <mxGeometry relative="1" as="geometry" />
        </mxCell>
        <mxCell id="YTzj1IbfX7oPGbKyCTcl-6" value="&lt;font face=&quot;Comic Sans MS&quot;&gt;ZONA DELETE&lt;/font&gt;" style="rounded=1;whiteSpace=wrap;html=1;sketch=1;curveFitting=1;jiggle=2;fillColor=#d5e8d4;strokeColor=#82b366;" vertex="1" parent="1">
          <mxGeometry x="310" y="440" width="160" height="60" as="geometry" />
        </mxCell>
        <mxCell id="YTzj1IbfX7oPGbKyCTcl-17" style="edgeStyle=orthogonalEdgeStyle;rounded=0;orthogonalLoop=1;jettySize=auto;html=1;exitX=0.5;exitY=1;exitDx=0;exitDy=0;entryX=0.5;entryY=0;entryDx=0;entryDy=0;sketch=1;curveFitting=1;jiggle=2;" edge="1" parent="1" source="YTzj1IbfX7oPGbKyCTcl-7" target="YTzj1IbfX7oPGbKyCTcl-8">
          <mxGeometry relative="1" as="geometry" />
        </mxCell>
        <mxCell id="YTzj1IbfX7oPGbKyCTcl-43" style="edgeStyle=orthogonalEdgeStyle;rounded=0;orthogonalLoop=1;jettySize=auto;html=1;exitX=1;exitY=0.5;exitDx=0;exitDy=0;entryX=0;entryY=0.5;entryDx=0;entryDy=0;dashed=1;sketch=1;curveFitting=1;jiggle=2;" edge="1" parent="1" source="YTzj1IbfX7oPGbKyCTcl-7" target="YTzj1IbfX7oPGbKyCTcl-31">
          <mxGeometry relative="1" as="geometry" />
        </mxCell>
        <mxCell id="YTzj1IbfX7oPGbKyCTcl-7" value="&lt;font face=&quot;Comic Sans MS&quot;&gt;ZONA ACTIVAR&lt;/font&gt;" style="rounded=1;whiteSpace=wrap;html=1;sketch=1;curveFitting=1;jiggle=2;fillColor=#d5e8d4;strokeColor=#82b366;" vertex="1" parent="1">
          <mxGeometry x="310" y="520" width="160" height="60" as="geometry" />
        </mxCell>
        <mxCell id="YTzj1IbfX7oPGbKyCTcl-18" style="edgeStyle=orthogonalEdgeStyle;rounded=0;orthogonalLoop=1;jettySize=auto;html=1;exitX=0.5;exitY=1;exitDx=0;exitDy=0;sketch=1;curveFitting=1;jiggle=2;" edge="1" parent="1" source="YTzj1IbfX7oPGbKyCTcl-8" target="YTzj1IbfX7oPGbKyCTcl-9">
          <mxGeometry relative="1" as="geometry" />
        </mxCell>
        <mxCell id="YTzj1IbfX7oPGbKyCTcl-35" style="edgeStyle=orthogonalEdgeStyle;rounded=0;orthogonalLoop=1;jettySize=auto;html=1;exitX=0;exitY=0.5;exitDx=0;exitDy=0;dashed=1;sketch=1;curveFitting=1;jiggle=2;flowAnimation=1;" edge="1" parent="1" source="YTzj1IbfX7oPGbKyCTcl-8" target="YTzj1IbfX7oPGbKyCTcl-32">
          <mxGeometry relative="1" as="geometry" />
        </mxCell>
        <mxCell id="YTzj1IbfX7oPGbKyCTcl-8" value="&lt;font face=&quot;Comic Sans MS&quot;&gt;BOTON DE NUEVO&lt;/font&gt;" style="rounded=1;whiteSpace=wrap;html=1;sketch=1;curveFitting=1;jiggle=2;fillColor=#d5e8d4;strokeColor=#82b366;" vertex="1" parent="1">
          <mxGeometry x="310" y="600" width="160" height="60" as="geometry" />
        </mxCell>
        <mxCell id="YTzj1IbfX7oPGbKyCTcl-19" style="edgeStyle=orthogonalEdgeStyle;rounded=0;orthogonalLoop=1;jettySize=auto;html=1;exitX=0.5;exitY=1;exitDx=0;exitDy=0;sketch=1;curveFitting=1;jiggle=2;" edge="1" parent="1" source="YTzj1IbfX7oPGbKyCTcl-9" target="YTzj1IbfX7oPGbKyCTcl-10">
          <mxGeometry relative="1" as="geometry" />
        </mxCell>
        <mxCell id="YTzj1IbfX7oPGbKyCTcl-46" style="edgeStyle=orthogonalEdgeStyle;rounded=0;orthogonalLoop=1;jettySize=auto;html=1;exitX=1;exitY=0.5;exitDx=0;exitDy=0;sketch=1;curveFitting=1;jiggle=2;" edge="1" parent="1" source="YTzj1IbfX7oPGbKyCTcl-9" target="YTzj1IbfX7oPGbKyCTcl-45">
          <mxGeometry relative="1" as="geometry" />
        </mxCell>
        <mxCell id="YTzj1IbfX7oPGbKyCTcl-9" value="&lt;font face=&quot;Comic Sans MS&quot;&gt;BOTON DE EDITAR&lt;/font&gt;" style="rounded=1;whiteSpace=wrap;html=1;sketch=1;curveFitting=1;jiggle=2;fillColor=#d5e8d4;strokeColor=#82b366;" vertex="1" parent="1">
          <mxGeometry x="310" y="680" width="160" height="60" as="geometry" />
        </mxCell>
        <mxCell id="YTzj1IbfX7oPGbKyCTcl-48" style="edgeStyle=orthogonalEdgeStyle;rounded=0;orthogonalLoop=1;jettySize=auto;html=1;exitX=1;exitY=0.5;exitDx=0;exitDy=0;sketch=1;curveFitting=1;jiggle=2;" edge="1" parent="1" source="YTzj1IbfX7oPGbKyCTcl-10" target="YTzj1IbfX7oPGbKyCTcl-47">
          <mxGeometry relative="1" as="geometry" />
        </mxCell>
        <mxCell id="YTzj1IbfX7oPGbKyCTcl-10" value="&lt;font face=&quot;Comic Sans MS&quot;&gt;FILTROS DE CABECERA&lt;/font&gt;" style="rounded=1;whiteSpace=wrap;html=1;sketch=1;curveFitting=1;jiggle=2;fillColor=#d5e8d4;strokeColor=#82b366;" vertex="1" parent="1">
          <mxGeometry x="310" y="760" width="160" height="60" as="geometry" />
        </mxCell>
        <mxCell id="YTzj1IbfX7oPGbKyCTcl-20" value="&lt;font face=&quot;Comic Sans MS&quot;&gt;FUNCION ACTIVAR BUSQUEDA EN FOOTER&lt;/font&gt;" style="rounded=1;whiteSpace=wrap;html=1;sketch=1;curveFitting=1;jiggle=2;fillColor=#f8cecc;strokeColor=#b85450;" vertex="1" parent="1">
          <mxGeometry x="310" y="856" width="160" height="60" as="geometry" />
        </mxCell>
        <mxCell id="YTzj1IbfX7oPGbKyCTcl-21" value="&lt;font face=&quot;Comic Sans MS&quot;&gt;FUNCION ACTIVAR MENSAJE DE FILTRO&lt;/font&gt;" style="rounded=1;whiteSpace=wrap;html=1;sketch=1;curveFitting=1;jiggle=2;fillColor=#f8cecc;strokeColor=#b85450;" vertex="1" parent="1">
          <mxGeometry x="310" y="926" width="160" height="60" as="geometry" />
        </mxCell>
        <mxCell id="YTzj1IbfX7oPGbKyCTcl-22" value="&lt;font face=&quot;Comic Sans MS&quot;&gt;FUNCION OCULTAR MENSAJE DE FILTRO&lt;/font&gt;" style="rounded=1;whiteSpace=wrap;html=1;sketch=1;curveFitting=1;jiggle=2;fillColor=#f8cecc;strokeColor=#b85450;" vertex="1" parent="1">
          <mxGeometry x="310" y="1006" width="160" height="60" as="geometry" />
        </mxCell>
        <mxCell id="YTzj1IbfX7oPGbKyCTcl-23" value="" style="rounded=0;whiteSpace=wrap;html=1;fillColor=none;sketch=1;curveFitting=1;jiggle=2;" vertex="1" parent="1">
          <mxGeometry x="284" y="846" width="220" height="240" as="geometry" />
        </mxCell>
        <mxCell id="YTzj1IbfX7oPGbKyCTcl-25" value="* Mascaras de campos&lt;div&gt;* Datapicker&lt;/div&gt;&lt;div&gt;* Con plugin + modal - mostrar dentro&amp;nbsp; &amp;nbsp; &amp;nbsp; &amp;nbsp; &amp;nbsp; &amp;nbsp; &amp;nbsp; &amp;nbsp; &amp;nbsp; &amp;nbsp; &amp;nbsp; &amp;nbsp; &amp;nbsp; &amp;nbsp; &amp;nbsp; &amp;nbsp; &amp;nbsp; &amp;nbsp; &amp;nbsp; &amp;nbsp; del modal&lt;/div&gt;" style="text;html=1;align=left;verticalAlign=middle;whiteSpace=wrap;rounded=0;fontFamily=Comic Sans MS;dashed=1;dashPattern=8 8;fillColor=#ffe6cc;strokeColor=#d79b00;" vertex="1" parent="1">
          <mxGeometry x="498" y="27.5" width="230" height="85" as="geometry" />
        </mxCell>
        <mxCell id="YTzj1IbfX7oPGbKyCTcl-26" value="* ...&lt;div&gt;* columns&lt;/div&gt;&lt;div&gt;* columnsDef&lt;/div&gt;&lt;div&gt;* ver detalle (opcional)&lt;/div&gt;&lt;div&gt;* Activar/desactivar&lt;/div&gt;&lt;div&gt;* Editar&lt;/div&gt;" style="text;html=1;align=left;verticalAlign=middle;whiteSpace=wrap;rounded=0;fontFamily=Comic Sans MS;dashed=1;dashPattern=8 8;fillColor=#ffe6cc;strokeColor=#d79b00;" vertex="1" parent="1">
          <mxGeometry x="40" y="107.5" width="230" height="85" as="geometry" />
        </mxCell>
        <mxCell id="YTzj1IbfX7oPGbKyCTcl-27" value="&lt;div style=&quot;color: rgb(248, 248, 242); background-color: rgb(39, 40, 34); font-family: Consolas, &amp;quot;Courier New&amp;quot;, monospace; line-height: 27px; white-space: pre; font-size: 10px;&quot;&gt;&lt;span style=&quot;color: #66d9ef;font-style: italic;&quot;&gt;var&lt;/span&gt; $table &lt;span style=&quot;color: #f92672;&quot;&gt;=&lt;/span&gt; &lt;span style=&quot;color: #a6e22e;&quot;&gt;$&lt;/span&gt;(&lt;span style=&quot;color: #e6db74;&quot;&gt;&#39;#productos_data&#39;&lt;/span&gt;);&lt;/div&gt;&lt;div style=&quot;color: rgb(248, 248, 242); background-color: rgb(39, 40, 34); font-family: Consolas, &amp;quot;Courier New&amp;quot;, monospace; line-height: 27px; white-space: pre;&quot;&gt;&lt;div style=&quot;line-height: 27px;&quot;&gt;&lt;span style=&quot;color: #66d9ef;font-style: italic;&quot;&gt;var&lt;/span&gt; $tableConfig &lt;span style=&quot;color: #f92672;&quot;&gt;=&lt;/span&gt; datatable_productoConfig;&lt;/div&gt;&lt;div style=&quot;line-height: 27px;&quot;&gt;&lt;div style=&quot;line-height: 27px;&quot;&gt;&lt;span style=&quot;color: #66d9ef;font-style: italic;&quot;&gt;var&lt;/span&gt; $tableBody &lt;span style=&quot;color: #f92672;&quot;&gt;=&lt;/span&gt; &lt;span style=&quot;color: #a6e22e;&quot;&gt;$&lt;/span&gt;(&lt;span style=&quot;color: #e6db74;&quot;&gt;&#39;#productos_data tbody&#39;&lt;/span&gt;);&lt;/div&gt;&lt;div style=&quot;line-height: 27px; font-size: 11px;&quot;&gt;&lt;div style=&quot;line-height: 27px;&quot;&gt;&lt;span style=&quot;color: #66d9ef;font-style: italic;&quot;&gt;var&lt;/span&gt; $columnFilterInputs &lt;span style=&quot;color: #f92672;&quot;&gt;=&lt;/span&gt; &lt;span style=&quot;color: #a6e22e;&quot;&gt;$&lt;/span&gt;(&lt;span style=&quot;color: #e6db74;&quot;&gt;&#39;#productos_data tfoot input&#39;&lt;/span&gt;);&lt;/div&gt;&lt;div style=&quot;line-height: 27px; font-size: 12px;&quot;&gt;&lt;div style=&quot;line-height: 27px;&quot;&gt;&lt;span style=&quot;color: #66d9ef;font-style: italic;&quot;&gt;var&lt;/span&gt; table_e &lt;span style=&quot;color: #f92672;&quot;&gt;=&lt;/span&gt; $table.&lt;span style=&quot;color: #a6e22e;&quot;&gt;DataTable&lt;/span&gt;($tableConfig);&lt;/div&gt;&lt;/div&gt;&lt;/div&gt;&lt;/div&gt;&lt;/div&gt;" style="text;html=1;align=left;verticalAlign=middle;whiteSpace=wrap;rounded=0;fontFamily=Comic Sans MS;dashed=1;dashPattern=8 8;fillColor=#ffe6cc;strokeColor=#d79b00;" vertex="1" parent="1">
          <mxGeometry x="480" y="187.5" width="360" height="85" as="geometry" />
        </mxCell>
        <mxCell id="YTzj1IbfX7oPGbKyCTcl-28" value="format(d) - Es la función que mueve el botón + y - (Genera la tabla)&lt;div&gt;- Control del click en el botón.&lt;/div&gt;" style="text;html=1;align=left;verticalAlign=middle;whiteSpace=wrap;rounded=0;fontFamily=Comic Sans MS;dashed=1;dashPattern=8 8;fillColor=#ffe6cc;strokeColor=#d79b00;" vertex="1" parent="1">
          <mxGeometry x="40" y="267.5" width="230" height="85" as="geometry" />
        </mxCell>
        <mxCell id="YTzj1IbfX7oPGbKyCTcl-29" value="* Conforma el formulario que se lanza con el Botón de DETALLE&lt;div&gt;* Control del click del botón de detalle&lt;/div&gt;&lt;div&gt;* Trabajo con los campos que dependen de otras tablas&lt;/div&gt;" style="text;html=1;align=left;verticalAlign=middle;whiteSpace=wrap;rounded=0;fontFamily=Comic Sans MS;dashed=1;dashPattern=8 8;fillColor=#ffe6cc;strokeColor=#d79b00;" vertex="1" parent="1">
          <mxGeometry x="497" y="347.5" width="230" height="85" as="geometry" />
        </mxCell>
        <mxCell id="YTzj1IbfX7oPGbKyCTcl-30" value="* Función desactivar (AJAX)&lt;div&gt;* Control del click en desactivar&lt;/div&gt;" style="text;html=1;align=left;verticalAlign=middle;whiteSpace=wrap;rounded=0;fontFamily=Comic Sans MS;dashed=1;dashPattern=8 8;fillColor=#ffe6cc;strokeColor=#d79b00;" vertex="1" parent="1">
          <mxGeometry x="40" y="432.5" width="230" height="85" as="geometry" />
        </mxCell>
        <mxCell id="YTzj1IbfX7oPGbKyCTcl-31" value="* Función activar (AJAX)&lt;div&gt;* Control del click en activar&lt;/div&gt;" style="text;html=1;align=left;verticalAlign=middle;whiteSpace=wrap;rounded=0;fontFamily=Comic Sans MS;dashed=1;dashPattern=8 8;fillColor=#ffe6cc;strokeColor=#d79b00;" vertex="1" parent="1">
          <mxGeometry x="500" y="508" width="230" height="85" as="geometry" />
        </mxCell>
        <mxCell id="YTzj1IbfX7oPGbKyCTcl-34" style="edgeStyle=orthogonalEdgeStyle;rounded=0;orthogonalLoop=1;jettySize=auto;html=1;exitX=0.5;exitY=1;exitDx=0;exitDy=0;sketch=1;curveFitting=1;jiggle=2;" edge="1" parent="1" source="YTzj1IbfX7oPGbKyCTcl-32" target="YTzj1IbfX7oPGbKyCTcl-33">
          <mxGeometry relative="1" as="geometry" />
        </mxCell>
        <mxCell id="YTzj1IbfX7oPGbKyCTcl-32" value="&lt;div&gt;* Control del click en nuevo&lt;/div&gt;&lt;div&gt;* Limpiar el formulario&lt;/div&gt;&lt;div&gt;* Cargar los select necesarios&lt;/div&gt;&lt;div&gt;* Mostrar el modal&lt;/div&gt;" style="text;html=1;align=left;verticalAlign=middle;whiteSpace=wrap;rounded=0;fontFamily=Comic Sans MS;dashed=1;dashPattern=8 8;fillColor=#ffe6cc;strokeColor=#d79b00;" vertex="1" parent="1">
          <mxGeometry x="40" y="587.5" width="230" height="85" as="geometry" />
        </mxCell>
        <mxCell id="YTzj1IbfX7oPGbKyCTcl-33" value="&lt;div&gt;* Control del click SALVAR del modal&lt;/div&gt;&lt;div&gt;* Captura de los datos del modal&lt;/div&gt;&lt;div&gt;* Validación de campos obligatorios&lt;/div&gt;&lt;div&gt;* AJAX de gfrabación&lt;/div&gt;" style="text;html=1;align=left;verticalAlign=middle;whiteSpace=wrap;rounded=0;fontFamily=Comic Sans MS;dashed=1;dashPattern=8 8;fillColor=#ffe6cc;strokeColor=#d79b00;" vertex="1" parent="1">
          <mxGeometry x="40" y="700" width="230" height="85" as="geometry" />
        </mxCell>
        <mxCell id="YTzj1IbfX7oPGbKyCTcl-36" style="edgeStyle=orthogonalEdgeStyle;rounded=0;orthogonalLoop=1;jettySize=auto;html=1;exitX=0;exitY=0.5;exitDx=0;exitDy=0;dashed=1;sketch=1;curveFitting=1;jiggle=2;flowAnimation=1;" edge="1" parent="1">
          <mxGeometry relative="1" as="geometry">
            <mxPoint x="310" y="474.5" as="sourcePoint" />
            <mxPoint x="270" y="474.5" as="targetPoint" />
          </mxGeometry>
        </mxCell>
        <mxCell id="YTzj1IbfX7oPGbKyCTcl-44" value="Archivo JS Standard" style="text;html=1;align=center;verticalAlign=middle;whiteSpace=wrap;rounded=0;fontStyle=1;fontSize=18;fontFamily=Comic Sans MS;" vertex="1" parent="1">
          <mxGeometry x="30" y="28" width="190" height="30" as="geometry" />
        </mxCell>
        <mxCell id="YTzj1IbfX7oPGbKyCTcl-45" value="&lt;div&gt;* Control del click en editar&lt;/div&gt;&lt;div&gt;* Recuperar los datos del Id&lt;/div&gt;&lt;div&gt;* Transformar los check, radio y select&lt;/div&gt;&lt;div&gt;* Mostrar el modal&lt;/div&gt;" style="text;html=1;align=left;verticalAlign=middle;whiteSpace=wrap;rounded=0;fontFamily=Comic Sans MS;dashed=1;dashPattern=8 8;fillColor=#ffe6cc;strokeColor=#d79b00;" vertex="1" parent="1">
          <mxGeometry x="510" y="660" width="230" height="85" as="geometry" />
        </mxCell>
        <mxCell id="YTzj1IbfX7oPGbKyCTcl-47" value="&lt;div&gt;* Detectar pulsación en radio Button&lt;/div&gt;&lt;div&gt;&lt;br&gt;&lt;/div&gt;" style="text;html=1;align=left;verticalAlign=middle;whiteSpace=wrap;rounded=0;fontFamily=Comic Sans MS;dashed=1;dashPattern=8 8;fillColor=#ffe6cc;strokeColor=#d79b00;" vertex="1" parent="1">
          <mxGeometry x="510" y="760" width="230" height="60" as="geometry" />
        </mxCell>
      </root>
    </mxGraphModel>
  </diagram>
</mxfile>
